+ filenameToUse=/home/horvathandras/vatic/vatic/public/videouploads/DJI_0013_30m_szarvasragas_homokmegy_20180603_napos_napraforgo_T3.avi
+ filenameNoDot=DJI_0013_30m_szarvasragas_homokmegy_20180603_napos_napraforgo_T3
+ FullUploadPath=/home/horvathandras/vatic/vatic/public/videouploads/DJI_0013_30m_szarvasragas_homokmegy_20180603_napos_napraforgo_T3.avi
+ VideoDataDir=/home/horvathandras/vatic/vatic/videos
+ AvailableObjectTypes='PozitívROI NegatívROI Túrás ~Friss ~1-2Hetes ~Régebbi ~Egyéb1 ~Egyéb2 ~Egyéb3 Rágás ~Friss ~1-2Hetes ~Régebbi ~Egyéb1 ~Egyéb2 ~Egyéb3 Törés ~Friss ~1-2Hetes ~Régebbi ~Egyéb1 ~Egyéb2 ~Egyéb3 Taposás ~Friss ~1-2Hetes ~Régebbi ~Egyéb1 ~Egyéb2 ~Egyéb3 EgészségesNövény Egyéb1 Egyéb2 Egyéb3 Egyéb4 Egyéb5 Bizonytalan Művelőút Gktaposás Vetőhiba Széldöntés Jégkár Belvíz Aszály Erózió EgyszikűGyom KétszikűGyom EgyébNövvédelmiPR'
++ dirname /home/horvathandras/vatic/vatic/vatic_publisher.sh
+ cd /home/horvathandras/vatic/vatic
+ touch /home/horvathandras/vatic/vatic/public/videouploads/DJI_0013_30m_szarvasragas_homokmegy_20180603_napos_napraforgo_T3.avi
+ chmod 744 /home/horvathandras/vatic/vatic/public/videouploads/DJI_0013_30m_szarvasragas_homokmegy_20180603_napos_napraforgo_T3.avi
+ mkdir /home/horvathandras/vatic/vatic/videos/DJI_0013_30m_szarvasragas_homokmegy_20180603_napos_napraforgo_T3
+ turkic extract /home/horvathandras/vatic/vatic/public/videouploads/DJI_0013_30m_szarvasragas_homokmegy_20180603_napos_napraforgo_T3.avi /home/horvathandras/vatic/vatic/videos/DJI_0013_30m_szarvasragas_homokmegy_20180603_napos_napraforgo_T3 --no-resize
ffmpeg version 2.8.14-0ubuntu0.16.04.1 Copyright (c) 2000-2018 the FFmpeg developers
  built with gcc 5.4.0 (Ubuntu 5.4.0-6ubuntu1~16.04.9) 20160609
  configuration: --prefix=/usr --extra-version=0ubuntu0.16.04.1 --build-suffix=-ffmpeg --toolchain=hardened --libdir=/usr/lib/x86_64-linux-gnu --incdir=/usr/include/x86_64-linux-gnu --cc=cc --cxx=g++ --enable-gpl --enable-shared --disable-stripping --disable-decoder=libopenjpeg --disable-decoder=libschroedinger --enable-avresample --enable-avisynth --enable-gnutls --enable-ladspa --enable-libass --enable-libbluray --enable-libbs2b --enable-libcaca --enable-libcdio --enable-libflite --enable-libfontconfig --enable-libfreetype --enable-libfribidi --enable-libgme --enable-libgsm --enable-libmodplug --enable-libmp3lame --enable-libopenjpeg --enable-libopus --enable-libpulse --enable-librtmp --enable-libschroedinger --enable-libshine --enable-libsnappy --enable-libsoxr --enable-libspeex --enable-libssh --enable-libtheora --enable-libtwolame --enable-libvorbis --enable-libvpx --enable-libwavpack --enable-libwebp --enable-libx265 --enable-libxvid --enable-libzvbi --enable-openal --enable-opengl --enable-x11grab --enable-libdc1394 --enable-libiec61883 --enable-libzmq --enable-frei0r --enable-libx264 --enable-libopencv
  libavutil      54. 31.100 / 54. 31.100
  libavcodec     56. 60.100 / 56. 60.100
  libavformat    56. 40.101 / 56. 40.101
  libavdevice    56.  4.100 / 56.  4.100
  libavfilter     5. 40.101 /  5. 40.101
  libavresample   2.  1.  0 /  2.  1.  0
  libswscale      3.  1.101 /  3.  1.101
  libswresample   1.  2.101 /  1.  2.101
  libpostproc    53.  3.100 / 53.  3.100
Input #0, mov,mp4,m4a,3gp,3g2,mj2, from '/home/horvathandras/vatic/vatic/public/videouploads/DJI_0013_30m_szarvasragas_homokmegy_20180603_napos_napraforgo_T3.avi':
  Metadata:
    major_brand     : qt  
    minor_version   : 537986816
    compatible_brands: qt  
    creation_time   : 2018-06-03 07:56:20
    location        : +46.515674+19.137876+30.700
    location-{    : +46.515674+19.137876+30.700
    comment         : DE=None, Mode=P, DSW=0001
  Duration: 00:00:21.88, start: 0.000000, bitrate: 101135 kb/s
    Stream #0:0(eng): Video: h264 (High) (avc1 / 0x31637661), yuv420p(tv, bt709), 4096x2160 [SAR 1:1 DAR 256:135], 100934 kb/s, 50 fps, 50 tbr, 50k tbn, 100 tbc (default)
    Metadata:
      creation_time   : 2018-06-03 07:56:20
      handler_name    : DJI.AVC
      encoder         : AVC encoder
    Stream #0:1(eng): Data: none (priv / 0x76697270), 186 kb/s
    Metadata:
      creation_time   : 2018-06-03 07:56:20
      handler_name    : DJI.Meta
Please use -b:a or -b:v, -b is ambiguous
[swscaler @ 0x1617a60] deprecated pixel format used, make sure you did set range correctly
Output #0, image2, to '/tmp/pyvision-ffmpeg-69055018/%d.jpg':
  Metadata:
    major_brand     : qt  
    minor_version   : 537986816
    compatible_brands: qt  
    comment         : DE=None, Mode=P, DSW=0001
    location        : +46.515674+19.137876+30.700
    location-{    : +46.515674+19.137876+30.700
    encoder         : Lavf56.40.101
    Stream #0:0(eng): Video: mjpeg, yuvj420p(pc), 4096x2160 [SAR 1:1 DAR 256:135], q=2-31, 10000 kb/s, 50 fps, 50 tbn, 50 tbc (default)
    Metadata:
      creation_time   : 2018-06-03 07:56:20
      handler_name    : DJI.AVC
      encoder         : Lavc56.60.100 mjpeg
Stream mapping:
  Stream #0:0 -> #0:0 (h264 (native) -> mjpeg (native))
Press [q] to stop, [?] for help
frame=    1 fps=0.9 q=19.4 size=N/A time=00:00:00.02 bitrate=N/A    frame=    4 fps=2.2 q=24.8 size=N/A time=00:00:00.08 bitrate=N/A    frame=    7 fps=2.8 q=24.8 size=N/A time=00:00:00.14 bitrate=N/A    frame=   10 fps=3.2 q=24.8 size=N/A time=00:00:00.20 bitrate=N/A    frame=   13 fps=3.5 q=24.8 size=N/A time=00:00:00.26 bitrate=N/A    frame=   16 fps=3.6 q=24.8 size=N/A time=00:00:00.32 bitrate=N/A    frame=   19 fps=3.8 q=24.8 size=N/A time=00:00:00.38 bitrate=N/A    frame=   22 fps=3.9 q=24.8 size=N/A time=00:00:00.44 bitrate=N/A    frame=   25 fps=4.0 q=24.8 size=N/A time=00:00:00.50 bitrate=N/A    frame=   28 fps=4.0 q=24.8 size=N/A time=00:00:00.56 bitrate=N/A    frame=   30 fps=4.0 q=24.8 size=N/A time=00:00:00.60 bitrate=N/A    frame=   33 fps=4.0 q=24.8 size=N/A time=00:00:00.66 bitrate=N/A    frame=   36 fps=4.1 q=24.8 size=N/A time=00:00:00.72 bitrate=N/A    frame=   39 fps=4.2 q=24.8 size=N/A time=00:00:00.78 bitrate=N/A    frame=   42 fps=4.2 q=24.8 size=N/A time=00:00:00.84 bitrate=N/A    frame=   45 fps=4.2 q=24.8 size=N/A time=00:00:00.90 bitrate=N/A    frame=   47 fps=4.2 q=24.8 size=N/A time=00:00:00.94 bitrate=N/A    frame=   51 fps=4.3 q=24.8 size=N/A time=00:00:01.02 bitrate=N/A    frame=   53 fps=4.3 q=24.8 size=N/A time=00:00:01.06 bitrate=N/A    frame=   55 fps=4.3 q=24.8 size=N/A time=00:00:01.10 bitrate=N/A    frame=   58 fps=4.3 q=24.8 size=N/A time=00:00:01.16 bitrate=N/A    frame=   61 fps=4.3 q=24.8 size=N/A time=00:00:01.22 bitrate=N/A    frame=   64 fps=4.3 q=24.8 size=N/A time=00:00:01.28 bitrate=N/A    frame=   67 fps=4.3 q=24.8 size=N/A time=00:00:01.34 bitrate=N/A    frame=   69 fps=4.3 q=24.8 size=N/A time=00:00:01.38 bitrate=N/A    frame=   72 fps=4.3 q=24.8 size=N/A time=00:00:01.44 bitrate=N/A    frame=   75 fps=4.3 q=24.8 size=N/A time=00:00:01.50 bitrate=N/A    frame=   78 fps=4.4 q=24.8 size=N/A time=00:00:01.56 bitrate=N/A    frame=   81 fps=4.4 q=24.8 size=N/A time=00:00:01.62 bitrate=N/A    frame=   84 fps=4.4 q=24.8 size=N/A time=00:00:01.68 bitrate=N/A    frame=   87 fps=4.4 q=24.8 size=N/A time=00:00:01.74 bitrate=N/A    frame=   90 fps=4.4 q=24.8 size=N/A time=00:00:01.80 bitrate=N/A    frame=   93 fps=4.4 q=24.8 size=N/A time=00:00:01.86 bitrate=N/A    frame=   96 fps=4.4 q=24.8 size=N/A time=00:00:01.92 bitrate=N/A    frame=  100 fps=4.5 q=24.8 size=N/A time=00:00:02.00 bitrate=N/A    frame=  104 fps=4.6 q=24.8 size=N/A time=00:00:02.08 bitrate=N/A    frame=  107 fps=4.6 q=24.8 size=N/A time=00:00:02.14 bitrate=N/A    frame=  110 fps=4.6 q=24.8 size=N/A time=00:00:02.20 bitrate=N/A    frame=  113 fps=4.6 q=24.8 size=N/A time=00:00:02.26 bitrate=N/A    frame=  116 fps=4.6 q=24.8 size=N/A time=00:00:02.32 bitrate=N/A    frame=  119 fps=4.6 q=24.8 size=N/A time=00:00:02.38 bitrate=N/A    frame=  122 fps=4.6 q=24.8 size=N/A time=00:00:02.44 bitrate=N/A    frame=  125 fps=4.7 q=24.8 size=N/A time=00:00:02.50 bitrate=N/A    frame=  129 fps=4.7 q=24.8 size=N/A time=00:00:02.58 bitrate=N/A    frame=  132 fps=4.7 q=24.8 size=N/A time=00:00:02.64 bitrate=N/A    frame=  135 fps=4.7 q=24.8 size=N/A time=00:00:02.70 bitrate=N/A    frame=  137 fps=4.7 q=24.8 size=N/A time=00:00:02.74 bitrate=N/A    frame=  139 fps=4.7 q=24.8 size=N/A time=00:00:02.78 bitrate=N/A    frame=  143 fps=4.7 q=24.8 size=N/A time=00:00:02.86 bitrate=N/A    frame=  146 fps=4.7 q=24.8 size=N/A time=00:00:02.92 bitrate=N/A    frame=  148 fps=4.7 q=24.8 size=N/A time=00:00:02.96 bitrate=N/A    frame=  150 fps=4.7 q=24.8 size=N/A time=00:00:03.00 bitrate=N/A    frame=  152 fps=4.6 q=24.8 size=N/A time=00:00:03.04 bitrate=N/A    frame=  155 fps=4.6 q=24.8 size=N/A time=00:00:03.10 bitrate=N/A    frame=  159 fps=4.7 q=24.8 size=N/A time=00:00:03.18 bitrate=N/A    frame=  162 fps=4.7 q=24.8 size=N/A time=00:00:03.24 bitrate=N/A    frame=  164 fps=4.7 q=24.8 size=N/A time=00:00:03.28 bitrate=N/A    frame=  167 fps=4.7 q=24.8 size=N/A time=00:00:03.34 bitrate=N/A    frame=  171 fps=4.7 q=24.8 size=N/A time=00:00:03.42 bitrate=N/A    frame=  175 fps=4.7 q=24.8 size=N/A time=00:00:03.50 bitrate=N/A    frame=  178 fps=4.7 q=24.8 size=N/A time=00:00:03.56 bitrate=N/A    frame=  181 fps=4.7 q=24.8 size=N/A time=00:00:03.62 bitrate=N/A    frame=  184 fps=4.7 q=24.8 size=N/A time=00:00:03.68 bitrate=N/A    frame=  188 fps=4.8 q=24.8 size=N/A time=00:00:03.76 bitrate=N/A    frame=  190 fps=4.7 q=24.8 size=N/A time=00:00:03.80 bitrate=N/A    frame=  194 fps=4.8 q=24.8 size=N/A time=00:00:03.88 bitrate=N/A    frame=  198 fps=4.8 q=24.8 size=N/A time=00:00:03.96 bitrate=N/A    frame=  202 fps=4.8 q=24.8 size=N/A time=00:00:04.04 bitrate=N/A    frame=  205 fps=4.8 q=24.8 size=N/A time=00:00:04.10 bitrate=N/A    frame=  208 fps=4.8 q=24.8 size=N/A time=00:00:04.16 bitrate=N/A    frame=  211 fps=4.8 q=24.8 size=N/A time=00:00:04.22 bitrate=N/A    frame=  214 fps=4.8 q=24.8 size=N/A time=00:00:04.28 bitrate=N/A    frame=  218 fps=4.8 q=24.8 size=N/A time=00:00:04.36 bitrate=N/A    frame=  221 fps=4.8 q=24.8 size=N/A time=00:00:04.42 bitrate=N/A    frame=  224 fps=4.8 q=24.8 size=N/A time=00:00:04.48 bitrate=N/A    frame=  227 fps=4.8 q=24.8 size=N/A time=00:00:04.54 bitrate=N/A    frame=  231 fps=4.9 q=24.8 size=N/A time=00:00:04.62 bitrate=N/A    frame=  234 fps=4.9 q=24.8 size=N/A time=00:00:04.68 bitrate=N/A    frame=  237 fps=4.9 q=24.8 size=N/A time=00:00:04.74 bitrate=N/A    frame=  240 fps=4.9 q=24.8 size=N/A time=00:00:04.80 bitrate=N/A    frame=  243 fps=4.9 q=24.8 size=N/A time=00:00:04.86 bitrate=N/A    frame=  247 fps=4.9 q=24.8 size=N/A time=00:00:04.94 bitrate=N/A    frame=  250 fps=4.9 q=24.8 size=N/A time=00:00:05.00 bitrate=N/A    frame=  254 fps=4.9 q=24.8 size=N/A time=00:00:05.08 bitrate=N/A    frame=  259 fps=4.9 q=24.8 size=N/A time=00:00:05.18 bitrate=N/A    frame=  261 fps=4.9 q=24.8 size=N/A time=00:00:05.22 bitrate=N/A    frame=  264 fps=4.9 q=24.8 size=N/A time=00:00:05.28 bitrate=N/A    frame=  267 fps=4.9 q=24.8 size=N/A time=00:00:05.34 bitrate=N/A    frame=  270 fps=4.9 q=24.8 size=N/A time=00:00:05.40 bitrate=N/A    frame=  273 fps=4.9 q=24.8 size=N/A time=00:00:05.46 bitrate=N/A    frame=  276 fps=4.9 q=24.8 size=N/A time=00:00:05.52 bitrate=N/A    frame=  279 fps=4.9 q=24.8 size=N/A time=00:00:05.58 bitrate=N/A    frame=  282 fps=4.9 q=24.8 size=N/A time=00:00:05.64 bitrate=N/A    frame=  286 fps=4.9 q=24.8 size=N/A time=00:00:05.72 bitrate=N/A    frame=  290 fps=5.0 q=24.8 size=N/A time=00:00:05.80 bitrate=N/A    frame=  292 fps=4.9 q=24.8 size=N/A time=00:00:05.84 bitrate=N/A    frame=  295 fps=4.9 q=24.8 size=N/A time=00:00:05.90 bitrate=N/A    frame=  299 fps=5.0 q=24.8 size=N/A time=00:00:05.98 bitrate=N/A    frame=  302 fps=5.0 q=24.8 size=N/A time=00:00:06.04 bitrate=N/A    frame=  305 fps=5.0 q=24.8 size=N/A time=00:00:06.10 bitrate=N/A    frame=  308 fps=5.0 q=24.8 size=N/A time=00:00:06.16 bitrate=N/A    frame=  312 fps=5.0 q=24.8 size=N/A time=00:00:06.24 bitrate=N/A    frame=  315 fps=5.0 q=24.8 size=N/A time=00:00:06.30 bitrate=N/A    frame=  319 fps=5.0 q=24.8 size=N/A time=00:00:06.38 bitrate=N/A    frame=  323 fps=5.0 q=24.8 size=N/A time=00:00:06.46 bitrate=N/A    frame=  326 fps=5.0 q=24.8 size=N/A time=00:00:06.52 bitrate=N/A    frame=  329 fps=5.0 q=24.8 size=N/A time=00:00:06.58 bitrate=N/A    frame=  332 fps=5.0 q=24.8 size=N/A time=00:00:06.64 bitrate=N/A    frame=  335 fps=5.0 q=24.8 size=N/A time=00:00:06.70 bitrate=N/A    frame=  339 fps=5.0 q=24.8 size=N/A time=00:00:06.78 bitrate=N/A    frame=  341 fps=5.0 q=24.8 size=N/A time=00:00:06.82 bitrate=N/A    frame=  344 fps=5.0 q=24.8 size=N/A time=00:00:06.88 bitrate=N/A    frame=  347 fps=5.0 q=24.8 size=N/A time=00:00:06.94 bitrate=N/A    frame=  350 fps=5.0 q=24.8 size=N/A time=00:00:07.00 bitrate=N/A    frame=  353 fps=5.0 q=24.8 size=N/A time=00:00:07.06 bitrate=N/A    frame=  356 fps=5.0 q=24.8 size=N/A time=00:00:07.12 bitrate=N/A    frame=  360 fps=5.1 q=24.8 size=N/A time=00:00:07.20 bitrate=N/A    frame=  364 fps=5.1 q=24.8 size=N/A time=00:00:07.28 bitrate=N/A    frame=  368 fps=5.1 q=24.8 size=N/A time=00:00:07.36 bitrate=N/A    frame=  372 fps=5.1 q=24.8 size=N/A time=00:00:07.44 bitrate=N/A    frame=  375 fps=5.1 q=24.8 size=N/A time=00:00:07.50 bitrate=N/A    frame=  378 fps=5.1 q=24.8 size=N/A time=00:00:07.56 bitrate=N/A    frame=  381 fps=5.1 q=24.8 size=N/A time=00:00:07.62 bitrate=N/A    frame=  384 fps=5.1 q=24.8 size=N/A time=00:00:07.68 bitrate=N/A    frame=  388 fps=5.1 q=24.8 size=N/A time=00:00:07.76 bitrate=N/A    frame=  391 fps=5.1 q=24.8 size=N/A time=00:00:07.82 bitrate=N/A    frame=  395 fps=5.1 q=24.8 size=N/A time=00:00:07.90 bitrate=N/A    frame=  399 fps=5.1 q=24.8 size=N/A time=00:00:07.98 bitrate=N/A    frame=  403 fps=5.2 q=24.8 size=N/A time=00:00:08.06 bitrate=N/A    frame=  407 fps=5.2 q=24.8 size=N/A time=00:00:08.14 bitrate=N/A    frame=  410 fps=5.2 q=24.8 size=N/A time=00:00:08.20 bitrate=N/A    frame=  413 fps=5.2 q=24.8 size=N/A time=00:00:08.26 bitrate=N/A    frame=  416 fps=5.2 q=24.8 size=N/A time=00:00:08.32 bitrate=N/A    frame=  419 fps=5.2 q=24.8 size=N/A time=00:00:08.38 bitrate=N/A    frame=  422 fps=5.2 q=24.8 size=N/A time=00:00:08.44 bitrate=N/A    frame=  426 fps=5.2 q=24.8 size=N/A time=00:00:08.52 bitrate=N/A    frame=  429 fps=5.2 q=24.8 size=N/A time=00:00:08.58 bitrate=N/A    frame=  432 fps=5.2 q=24.8 size=N/A time=00:00:08.64 bitrate=N/A    frame=  435 fps=5.2 q=24.8 size=N/A time=00:00:08.70 bitrate=N/A    frame=  439 fps=5.2 q=24.8 size=N/A time=00:00:08.78 bitrate=N/A    frame=  442 fps=5.2 q=24.8 size=N/A time=00:00:08.84 bitrate=N/A    frame=  446 fps=5.2 q=24.8 size=N/A time=00:00:08.92 bitrate=N/A    frame=  449 fps=5.2 q=24.8 size=N/A time=00:00:08.98 bitrate=N/A    frame=  451 fps=5.2 q=24.8 size=N/A time=00:00:09.02 bitrate=N/A    frame=  454 fps=5.2 q=24.8 size=N/A time=00:00:09.08 bitrate=N/A    frame=  458 fps=5.2 q=24.8 size=N/A time=00:00:09.16 bitrate=N/A    frame=  462 fps=5.2 q=24.8 size=N/A time=00:00:09.24 bitrate=N/A    frame=  465 fps=5.2 q=24.8 size=N/A time=00:00:09.30 bitrate=N/A    frame=  469 fps=5.2 q=24.8 size=N/A time=00:00:09.38 bitrate=N/A    frame=  472 fps=5.2 q=24.8 size=N/A time=00:00:09.44 bitrate=N/A    frame=  476 fps=5.2 q=24.8 size=N/A time=00:00:09.52 bitrate=N/A    frame=  479 fps=5.2 q=24.8 size=N/A time=00:00:09.58 bitrate=N/A    frame=  482 fps=5.2 q=24.8 size=N/A time=00:00:09.64 bitrate=N/A    frame=  485 fps=5.2 q=24.8 size=N/A time=00:00:09.70 bitrate=N/A    frame=  488 fps=5.2 q=24.8 size=N/A time=00:00:09.76 bitrate=N/A    frame=  491 fps=5.2 q=24.8 size=N/A time=00:00:09.82 bitrate=N/A    frame=  495 fps=5.2 q=24.8 size=N/A time=00:00:09.90 bitrate=N/A    frame=  499 fps=5.2 q=24.8 size=N/A time=00:00:09.98 bitrate=N/A    frame=  503 fps=5.2 q=24.8 size=N/A time=00:00:10.06 bitrate=N/A    frame=  506 fps=5.2 q=24.8 size=N/A time=00:00:10.12 bitrate=N/A    frame=  509 fps=5.2 q=24.8 size=N/A time=00:00:10.18 bitrate=N/A    frame=  512 fps=5.2 q=24.8 size=N/A time=00:00:10.24 bitrate=N/A    frame=  515 fps=5.2 q=24.8 size=N/A time=00:00:10.30 bitrate=N/A    frame=  518 fps=5.2 q=24.8 size=N/A time=00:00:10.36 bitrate=N/A    frame=  521 fps=5.2 q=24.8 size=N/A time=00:00:10.42 bitrate=N/A    frame=  524 fps=5.2 q=24.8 size=N/A time=00:00:10.48 bitrate=N/A    frame=  527 fps=5.2 q=24.8 size=N/A time=00:00:10.54 bitrate=N/A    frame=  530 fps=5.2 q=24.8 size=N/A time=00:00:10.60 bitrate=N/A    frame=  533 fps=5.2 q=24.8 size=N/A time=00:00:10.66 bitrate=N/A    frame=  536 fps=5.2 q=24.8 size=N/A time=00:00:10.72 bitrate=N/A    frame=  540 fps=5.2 q=24.8 size=N/A time=00:00:10.80 bitrate=N/A    frame=  544 fps=5.2 q=24.8 size=N/A time=00:00:10.88 bitrate=N/A    frame=  547 fps=5.2 q=24.8 size=N/A time=00:00:10.94 bitrate=N/A    frame=  551 fps=5.2 q=24.8 size=N/A time=00:00:11.02 bitrate=N/A    frame=  554 fps=5.2 q=24.8 size=N/A time=00:00:11.08 bitrate=N/A    frame=  557 fps=5.2 q=24.8 size=N/A time=00:00:11.14 bitrate=N/A    frame=  561 fps=5.2 q=24.8 size=N/A time=00:00:11.22 bitrate=N/A    frame=  564 fps=5.2 q=24.8 size=N/A time=00:00:11.28 bitrate=N/A    frame=  567 fps=5.2 q=24.8 size=N/A time=00:00:11.34 bitrate=N/A    frame=  571 fps=5.2 q=24.8 size=N/A time=00:00:11.42 bitrate=N/A    frame=  574 fps=5.2 q=24.8 size=N/A time=00:00:11.48 bitrate=N/A    frame=  577 fps=5.2 q=24.8 size=N/A time=00:00:11.54 bitrate=N/A    frame=  581 fps=5.2 q=24.8 size=N/A time=00:00:11.62 bitrate=N/A    frame=  584 fps=5.2 q=24.8 size=N/A time=00:00:11.68 bitrate=N/A    frame=  587 fps=5.2 q=24.8 size=N/A time=00:00:11.74 bitrate=N/A    frame=  591 fps=5.2 q=24.8 size=N/A time=00:00:11.82 bitrate=N/A    frame=  595 fps=5.2 q=24.8 size=N/A time=00:00:11.90 bitrate=N/A    frame=  599 fps=5.2 q=24.8 size=N/A time=00:00:11.98 bitrate=N/A    frame=  602 fps=5.2 q=24.8 size=N/A time=00:00:12.04 bitrate=N/A    frame=  605 fps=5.2 q=24.8 size=N/A time=00:00:12.10 bitrate=N/A    frame=  608 fps=5.2 q=24.8 size=N/A time=00:00:12.16 bitrate=N/A    frame=  611 fps=5.2 q=24.8 size=N/A time=00:00:12.22 bitrate=N/A    frame=  615 fps=5.2 q=24.8 size=N/A time=00:00:12.30 bitrate=N/A    frame=  618 fps=5.2 q=24.8 size=N/A time=00:00:12.36 bitrate=N/A    frame=  622 fps=5.3 q=24.8 size=N/A time=00:00:12.44 bitrate=N/A    frame=  625 fps=5.3 q=24.8 size=N/A time=00:00:12.50 bitrate=N/A    frame=  628 fps=5.2 q=24.8 size=N/A time=00:00:12.56 bitrate=N/A    frame=  631 fps=5.2 q=24.8 size=N/A time=00:00:12.62 bitrate=N/A    frame=  635 fps=5.2 q=24.8 size=N/A time=00:00:12.70 bitrate=N/A    frame=  638 fps=5.2 q=24.8 size=N/A time=00:00:12.76 bitrate=N/A    frame=  642 fps=5.2 q=24.8 size=N/A time=00:00:12.84 bitrate=N/A    frame=  645 fps=5.3 q=24.8 size=N/A time=00:00:12.90 bitrate=N/A    frame=  648 fps=5.3 q=24.8 size=N/A time=00:00:12.96 bitrate=N/A    frame=  651 fps=5.3 q=24.8 size=N/A time=00:00:13.02 bitrate=N/A    frame=  654 fps=5.3 q=24.8 size=N/A time=00:00:13.08 bitrate=N/A    frame=  657 fps=5.3 q=24.8 size=N/A time=00:00:13.14 bitrate=N/A    frame=  660 fps=5.3 q=24.8 size=N/A time=00:00:13.20 bitrate=N/A    frame=  663 fps=5.3 q=24.8 size=N/A time=00:00:13.26 bitrate=N/A    frame=  666 fps=5.3 q=24.8 size=N/A time=00:00:13.32 bitrate=N/A    frame=  670 fps=5.3 q=24.8 size=N/A time=00:00:13.40 bitrate=N/A    frame=  673 fps=5.3 q=24.8 size=N/A time=00:00:13.46 bitrate=N/A    frame=  676 fps=5.3 q=24.8 size=N/A time=00:00:13.52 bitrate=N/A    frame=  679 fps=5.3 q=24.8 size=N/A time=00:00:13.58 bitrate=N/A    frame=  682 fps=5.3 q=24.8 size=N/A time=00:00:13.64 bitrate=N/A    frame=  685 fps=5.3 q=24.8 size=N/A time=00:00:13.70 bitrate=N/A    frame=  688 fps=5.3 q=24.8 size=N/A time=00:00:13.76 bitrate=N/A    frame=  690 fps=5.3 q=24.8 size=N/A time=00:00:13.80 bitrate=N/A    frame=  693 fps=5.2 q=24.8 size=N/A time=00:00:13.86 bitrate=N/A    frame=  695 fps=5.2 q=24.8 size=N/A time=00:00:13.90 bitrate=N/A    frame=  698 fps=5.2 q=24.8 size=N/A time=00:00:13.96 bitrate=N/A    frame=  702 fps=5.2 q=24.8 size=N/A time=00:00:14.04 bitrate=N/A    frame=  705 fps=5.2 q=24.8 size=N/A time=00:00:14.10 bitrate=N/A    frame=  708 fps=5.3 q=24.8 size=N/A time=00:00:14.16 bitrate=N/A    frame=  711 fps=5.3 q=24.8 size=N/A time=00:00:14.22 bitrate=N/A    frame=  714 fps=5.3 q=24.8 size=N/A time=00:00:14.28 bitrate=N/A    frame=  717 fps=5.3 q=24.8 size=N/A time=00:00:14.34 bitrate=N/A    frame=  720 fps=5.3 q=24.8 size=N/A time=00:00:14.40 bitrate=N/A    frame=  723 fps=5.2 q=24.8 size=N/A time=00:00:14.46 bitrate=N/A    frame=  727 fps=5.3 q=24.8 size=N/A time=00:00:14.54 bitrate=N/A    frame=  730 fps=5.3 q=24.8 size=N/A time=00:00:14.60 bitrate=N/A    frame=  734 fps=5.3 q=24.8 size=N/A time=00:00:14.68 bitrate=N/A    frame=  737 fps=5.3 q=24.8 size=N/A time=00:00:14.74 bitrate=N/A    frame=  741 fps=5.3 q=24.8 size=N/A time=00:00:14.82 bitrate=N/A    frame=  745 fps=5.3 q=24.8 size=N/A time=00:00:14.90 bitrate=N/A    frame=  748 fps=5.3 q=24.8 size=N/A time=00:00:14.96 bitrate=N/A    frame=  751 fps=5.3 q=24.8 size=N/A time=00:00:15.02 bitrate=N/A    frame=  754 fps=5.3 q=24.8 size=N/A time=00:00:15.08 bitrate=N/A    frame=  758 fps=5.3 q=24.8 size=N/A time=00:00:15.16 bitrate=N/A    frame=  761 fps=5.3 q=24.8 size=N/A time=00:00:15.22 bitrate=N/A    frame=  765 fps=5.3 q=24.8 size=N/A time=00:00:15.30 bitrate=N/A    frame=  768 fps=5.3 q=24.8 size=N/A time=00:00:15.36 bitrate=N/A    frame=  771 fps=5.3 q=24.8 size=N/A time=00:00:15.42 bitrate=N/A    frame=  775 fps=5.3 q=24.8 size=N/A time=00:00:15.50 bitrate=N/A    frame=  778 fps=5.3 q=24.8 size=N/A time=00:00:15.56 bitrate=N/A    frame=  782 fps=5.3 q=24.8 size=N/A time=00:00:15.64 bitrate=N/A    frame=  786 fps=5.3 q=24.8 size=N/A time=00:00:15.72 bitrate=N/A    frame=  789 fps=5.3 q=24.8 size=N/A time=00:00:15.78 bitrate=N/A    frame=  793 fps=5.3 q=24.8 size=N/A time=00:00:15.86 bitrate=N/A    frame=  796 fps=5.3 q=24.8 size=N/A time=00:00:15.92 bitrate=N/A    frame=  799 fps=5.3 q=24.8 size=N/A time=00:00:15.98 bitrate=N/A    frame=  803 fps=5.3 q=24.8 size=N/A time=00:00:16.06 bitrate=N/A    frame=  806 fps=5.3 q=24.8 size=N/A time=00:00:16.12 bitrate=N/A    frame=  808 fps=5.3 q=24.8 size=N/A time=00:00:16.16 bitrate=N/A    frame=  811 fps=5.3 q=24.8 size=N/A time=00:00:16.22 bitrate=N/A    frame=  814 fps=5.3 q=24.8 size=N/A time=00:00:16.28 bitrate=N/A    frame=  818 fps=5.3 q=24.8 size=N/A time=00:00:16.36 bitrate=N/A    frame=  821 fps=5.3 q=24.8 size=N/A time=00:00:16.42 bitrate=N/A    frame=  824 fps=5.3 q=24.8 size=N/A time=00:00:16.48 bitrate=N/A    frame=  827 fps=5.3 q=24.8 size=N/A time=00:00:16.54 bitrate=N/A    frame=  830 fps=5.3 q=24.8 size=N/A time=00:00:16.60 bitrate=N/A    frame=  833 fps=5.3 q=24.8 size=N/A time=00:00:16.66 bitrate=N/A    frame=  836 fps=5.3 q=24.8 size=N/A time=00:00:16.72 bitrate=N/A    frame=  838 fps=5.3 q=24.8 size=N/A time=00:00:16.76 bitrate=N/A    frame=  841 fps=5.3 q=24.8 size=N/A time=00:00:16.82 bitrate=N/A    frame=  844 fps=5.3 q=24.8 size=N/A time=00:00:16.88 bitrate=N/A    frame=  847 fps=5.3 q=24.8 size=N/A time=00:00:16.94 bitrate=N/A    frame=  850 fps=5.3 q=24.8 size=N/A time=00:00:17.00 bitrate=N/A    frame=  853 fps=5.3 q=24.8 size=N/A time=00:00:17.06 bitrate=N/A    frame=  856 fps=5.3 q=24.8 size=N/A time=00:00:17.12 bitrate=N/A    frame=  859 fps=5.3 q=24.8 size=N/A time=00:00:17.18 bitrate=N/A    frame=  862 fps=5.3 q=24.8 size=N/A time=00:00:17.24 bitrate=N/A    frame=  866 fps=5.3 q=24.8 size=N/A time=00:00:17.32 bitrate=N/A    frame=  869 fps=5.3 q=24.8 size=N/A time=00:00:17.38 bitrate=N/A    frame=  872 fps=5.3 q=24.8 size=N/A time=00:00:17.44 bitrate=N/A    frame=  875 fps=5.3 q=24.8 size=N/A time=00:00:17.50 bitrate=N/A    frame=  878 fps=5.3 q=24.8 size=N/A time=00:00:17.56 bitrate=N/A    frame=  881 fps=5.3 q=24.8 size=N/A time=00:00:17.62 bitrate=N/A    frame=  884 fps=5.3 q=24.8 size=N/A time=00:00:17.68 bitrate=N/A    frame=  888 fps=5.3 q=24.8 size=N/A time=00:00:17.76 bitrate=N/A    frame=  891 fps=5.3 q=24.8 size=N/A time=00:00:17.82 bitrate=N/A    frame=  894 fps=5.3 q=24.8 size=N/A time=00:00:17.88 bitrate=N/A    frame=  898 fps=5.3 q=24.8 size=N/A time=00:00:17.96 bitrate=N/A    frame=  901 fps=5.3 q=24.8 size=N/A time=00:00:18.02 bitrate=N/A    frame=  904 fps=5.3 q=24.8 size=N/A time=00:00:18.08 bitrate=N/A    frame=  907 fps=5.3 q=24.8 size=N/A time=00:00:18.14 bitrate=N/A    frame=  910 fps=5.3 q=24.8 size=N/A time=00:00:18.20 bitrate=N/A    frame=  912 fps=5.3 q=24.8 size=N/A time=00:00:18.24 bitrate=N/A    frame=  916 fps=5.3 q=24.8 size=N/A time=00:00:18.32 bitrate=N/A    frame=  919 fps=5.3 q=24.8 size=N/A time=00:00:18.38 bitrate=N/A    frame=  923 fps=5.3 q=24.8 size=N/A time=00:00:18.46 bitrate=N/A    frame=  926 fps=5.3 q=24.8 size=N/A time=00:00:18.52 bitrate=N/A    frame=  930 fps=5.3 q=24.8 size=N/A time=00:00:18.60 bitrate=N/A    frame=  934 fps=5.3 q=24.8 size=N/A time=00:00:18.68 bitrate=N/A    frame=  937 fps=5.3 q=24.8 size=N/A time=00:00:18.74 bitrate=N/A    frame=  940 fps=5.3 q=24.8 size=N/A time=00:00:18.80 bitrate=N/A    frame=  943 fps=5.3 q=24.8 size=N/A time=00:00:18.86 bitrate=N/A    frame=  946 fps=5.3 q=24.8 size=N/A time=00:00:18.92 bitrate=N/A    frame=  950 fps=5.3 q=24.8 size=N/A time=00:00:19.00 bitrate=N/A    frame=  954 fps=5.3 q=24.8 size=N/A time=00:00:19.08 bitrate=N/A    frame=  957 fps=5.3 q=24.8 size=N/A time=00:00:19.14 bitrate=N/A    frame=  960 fps=5.3 q=24.8 size=N/A time=00:00:19.20 bitrate=N/A    frame=  964 fps=5.3 q=24.8 size=N/A time=00:00:19.28 bitrate=N/A    frame=  967 fps=5.3 q=24.8 size=N/A time=00:00:19.34 bitrate=N/A    frame=  970 fps=5.3 q=24.8 size=N/A time=00:00:19.40 bitrate=N/A    frame=  974 fps=5.3 q=24.8 size=N/A time=00:00:19.48 bitrate=N/A    frame=  976 fps=5.3 q=24.8 size=N/A time=00:00:19.52 bitrate=N/A    frame=  979 fps=5.3 q=24.8 size=N/A time=00:00:19.58 bitrate=N/A    frame=  983 fps=5.3 q=24.8 size=N/A time=00:00:19.66 bitrate=N/A    frame=  985 fps=5.3 q=24.8 size=N/A time=00:00:19.70 bitrate=N/A    frame=  987 fps=5.3 q=24.8 size=N/A time=00:00:19.74 bitrate=N/A    frame=  991 fps=5.3 q=24.8 size=N/A time=00:00:19.82 bitrate=N/A    frame=  994 fps=5.3 q=24.8 size=N/A time=00:00:19.88 bitrate=N/A    frame=  997 fps=5.3 q=24.8 size=N/A time=00:00:19.94 bitrate=N/A    frame= 1001 fps=5.3 q=24.8 size=N/A time=00:00:20.02 bitrate=N/A    frame= 1004 fps=5.3 q=24.8 size=N/A time=00:00:20.08 bitrate=N/A    frame= 1007 fps=5.3 q=24.8 size=N/A time=00:00:20.14 bitrate=N/A    frame= 1010 fps=5.3 q=24.8 size=N/A time=00:00:20.20 bitrate=N/A    frame= 1013 fps=5.3 q=24.8 size=N/A time=00:00:20.26 bitrate=N/A    frame= 1016 fps=5.3 q=24.8 size=N/A time=00:00:20.32 bitrate=N/A    frame= 1019 fps=5.3 q=24.8 size=N/A time=00:00:20.38 bitrate=N/A    frame= 1022 fps=5.3 q=24.8 size=N/A time=00:00:20.44 bitrate=N/A    frame= 1025 fps=5.3 q=24.8 size=N/A time=00:00:20.50 bitrate=N/A    frame= 1028 fps=5.3 q=24.8 size=N/A time=00:00:20.56 bitrate=N/A    frame= 1032 fps=5.3 q=24.8 size=N/A time=00:00:20.64 bitrate=N/A    frame= 1035 fps=5.3 q=24.8 size=N/A time=00:00:20.70 bitrate=N/A    frame= 1039 fps=5.3 q=24.8 size=N/A time=00:00:20.78 bitrate=N/A    frame= 1042 fps=5.3 q=24.8 size=N/A time=00:00:20.84 bitrate=N/A    frame= 1044 fps=5.3 q=24.8 size=N/A time=00:00:20.88 bitrate=N/A    frame= 1047 fps=5.3 q=24.8 size=N/A time=00:00:20.94 bitrate=N/A    frame= 1051 fps=5.3 q=24.8 size=N/A time=00:00:21.02 bitrate=N/A    frame= 1055 fps=5.3 q=24.8 size=N/A time=00:00:21.10 bitrate=N/A    frame= 1058 fps=5.3 q=24.8 size=N/A time=00:00:21.16 bitrate=N/A    frame= 1062 fps=5.3 q=24.8 size=N/A time=00:00:21.24 bitrate=N/A    frame= 1065 fps=5.3 q=24.8 size=N/A time=00:00:21.30 bitrate=N/A    frame= 1069 fps=5.3 q=24.8 size=N/A time=00:00:21.38 bitrate=N/A    frame= 1071 fps=5.3 q=24.8 size=N/A time=00:00:21.42 bitrate=N/A    frame= 1075 fps=5.3 q=24.8 size=N/A time=00:00:21.50 bitrate=N/A    frame= 1078 fps=5.3 q=24.8 size=N/A time=00:00:21.56 bitrate=N/A    frame= 1081 fps=5.3 q=24.8 size=N/A time=00:00:21.62 bitrate=N/A    frame= 1085 fps=5.3 q=24.8 size=N/A time=00:00:21.70 bitrate=N/A    frame= 1089 fps=5.3 q=24.8 size=N/A time=00:00:21.78 bitrate=N/A    frame= 1093 fps=5.3 q=24.8 size=N/A time=00:00:21.86 bitrate=N/A    frame= 1094 fps=5.3 q=24.8 Lsize=N/A time=00:00:21.88 bitrate=N/A    
video:997753kB audio:0kB subtitle:0kB other streams:0kB global headers:0kB muxing overhead: unknown
+ turkic load DJI_0013_30m_szarvasragas_homokmegy_20180603_napos_napraforgo_T3 /home/horvathandras/vatic/vatic/videos/DJI_0013_30m_szarvasragas_homokmegy_20180603_napos_napraforgo_T3 $'Pozit\303\255vROI' $'Negat\303\255vROI' $'T\303\272r\303\241s' '~Friss' '~1-2Hetes' '~Régebbi' '~Egyéb1' '~Egyéb2' '~Egyéb3' $'R\303\241g\303\241s' '~Friss' '~1-2Hetes' '~Régebbi' '~Egyéb1' '~Egyéb2' '~Egyéb3' $'T\303\266r\303\251s' '~Friss' '~1-2Hetes' '~Régebbi' '~Egyéb1' '~Egyéb2' '~Egyéb3' $'Tapos\303\241s' '~Friss' '~1-2Hetes' '~Régebbi' '~Egyéb1' '~Egyéb2' '~Egyéb3' $'Eg\303\251szs\303\251gesN\303\266v\303\251ny' $'Egy\303\251b1' $'Egy\303\251b2' $'Egy\303\251b3' $'Egy\303\251b4' $'Egy\303\251b5' Bizonytalan $'M\305\261vel\305\221\303\272t' $'Gktapos\303\241s' $'Vet\305\221hiba' $'Sz\303\251ld\303\266nt\303\251s' $'J\303\251gk\303\241r' $'Belv\303\255z' $'Asz\303\241ly' $'Er\303\263zi\303\263' $'Egyszik\305\261Gyom' $'K\303\251tszik\305\261Gyom' $'Egy\303\251bN\303\266vv\303\251delmiPR' --offline --title '$filenameNoDot Video' --length 1000 --description 'vatic annotation'
+ turkic publish --offline
+ mkdir /home/horvathandras/vatic/vatic/public/videothumbnails/DJI_0013_30m_szarvasragas_homokmegy_20180603_napos_napraforgo_T3
+ cp /home/horvathandras/vatic/vatic/videos/DJI_0013_30m_szarvasragas_homokmegy_20180603_napos_napraforgo_T3/0/0/31.jpg /home/horvathandras/vatic/vatic/public/videothumbnails/DJI_0013_30m_szarvasragas_homokmegy_20180603_napos_napraforgo_T3/thumb.jpg
